<svg width="22" height="20" viewBox="0 0 22 20" fill="none" xmlns="http://www.w3.org/2000/svg">
<path d="M14.5099 4.15349L17.7636 9.82875L14.506 15.8527C14.4753 15.9062 14.4474 15.955 14.4215 15.9999C14.3715 16 14.3173 16 14.2581 16H7.74209C7.68263 16 7.62828 16 7.57804 15.9999C7.55114 15.9531 7.52197 15.9023 7.48987 15.8462L7.48958 15.8457L4.23638 10.1715C4.23635 10.1714 4.23631 10.1714 4.23628 10.1713C4.20017 10.1083 4.16778 10.0518 4.13831 10.0002C4.16777 9.94857 4.20016 9.89205 4.23626 9.82909L4.23629 9.82904L7.48959 4.1545L7.48976 4.15421C7.52197 4.09802 7.55123 4.04698 7.57821 4.00007C7.62971 4.00001 7.68551 4 7.74669 4H14.2532C14.3145 4 14.3703 4.00001 14.4219 4.00007C14.4487 4.04676 14.4779 4.09754 14.5099 4.15344C14.5099 4.15346 14.5099 4.15347 14.5099 4.15349ZM17.7635 10.1708L14.506 15.8527L17.7638 9.82904C17.7998 9.89183 17.8321 9.9482 17.8615 9.99968C17.8321 10.0511 17.7998 10.1075 17.7638 10.1703C17.7638 10.1704 17.7637 10.1704 17.7637 10.1705C17.7636 10.1706 17.7636 10.1707 17.7635 10.1708Z" stroke="#111318" stroke-width="6" stroke-linecap="round" stroke-linejoin="round"/>
<path fill-rule="evenodd" clip-rule="evenodd" d="M3 10C3 5.56668 6.59682 2 11 2C15.4032 2 19 5.5667 19 10C19 14.4336 15.403 18 11 18C6.59703 18 3 14.4336 3 10ZM11 12.5651C12.3956 12.5651 13.5542 11.4318 13.5542 10C13.5542 8.56812 12.3954 7.4349 11 7.4349C9.60461 7.4349 8.4458 8.56815 8.4458 10C8.4458 11.4317 9.60439 12.5651 11 12.5651Z" fill="#111318"/>
</svg>
